<svg width="31" height="36" viewBox="0 0 31 36" fill="none" xmlns="http://www.w3.org/2000/svg">
<g id="igatta-recruit-logo">
<g id="Clip path group">
<mask id="mask0_40_104" style="mask-type:luminance" maskUnits="userSpaceOnUse" x="0" y="0" width="31" height="30">
<g id="clip0_20_9">
<path id="Vector" d="M31 0H0V29.6471H31V0Z" fill="white"/>
</g>
</mask>
<g mask="url(#mask0_40_104)">
<g id="Group">
<path id="Vector_2" d="M31 12.8965C31.0002 10.7514 30.0884 8.80235 28.6182 7.39772C27.2102 6.04968 25.2791 5.19501 23.1462 5.12628C22.736 4.04451 22.0829 3.07345 21.2497 2.2779C19.7807 0.871694 17.7429 -0.000520906 15.5 2.33401e-07C13.2571 -0.000520906 11.219 0.871751 9.75002 2.2779C8.91708 3.07345 8.26371 4.04451 7.85378 5.12628C5.7209 5.19495 3.78981 6.04968 2.38186 7.39772C0.91123 8.80235 -0.000544677 10.7514 2.44117e-07 12.8965C-0.000544677 15.0415 0.91123 16.9906 2.38186 18.3952C2.61744 18.6208 2.86937 18.8314 3.13276 19.0279C2.92702 19.7122 2.81428 20.434 2.81459 21.1804C2.81404 23.3255 3.72588 25.274 5.19619 26.6792C6.66549 28.0854 8.70296 28.9576 10.9462 28.9571C12.6312 28.9576 14.2006 28.4653 15.5001 27.6242C16.7995 28.4653 18.3687 28.9576 20.0539 28.9571C22.2969 28.9576 24.3346 28.0854 25.804 26.6792C27.2742 25.274 28.1858 23.3255 28.1856 21.1804C28.1858 20.434 28.0731 19.7122 27.8672 19.0279C28.1307 18.8313 28.3823 18.6208 28.6182 18.3952C30.0884 16.9906 31.0002 15.0415 31 12.8965ZM22.0821 7.77671C22.0816 9.5172 21.3467 11.0862 20.1542 12.2283C19.159 13.1787 17.8525 13.8234 16.3911 14.0129C16.3235 13.6504 16.2863 13.2779 16.286 12.8965C16.2863 11.156 17.0217 9.58687 18.214 8.44539C19.2091 7.49442 20.5154 6.84974 21.977 6.6608C22.0446 7.0227 22.0821 7.39518 22.0821 7.77671ZM24.708 16.7289C25.2271 17.2263 25.6597 17.8048 25.9825 18.4429C25.0557 18.9201 23.9966 19.1908 22.868 19.1913C21.0481 19.1908 19.4074 18.488 18.2139 17.3476C17.6947 16.8503 17.2622 16.2722 16.9393 15.6341C17.866 15.1564 18.9252 14.8856 20.0538 14.8856C21.8737 14.8862 23.5145 15.589 24.708 16.7289ZM10.8458 3.32562C12.0394 2.18514 13.6798 1.48235 15.5 1.48183C17.3199 1.48235 18.9606 2.18514 20.1542 3.32562C20.7239 3.87102 21.1879 4.51521 21.5187 5.22853C19.8145 5.50074 18.2863 6.27979 17.1182 7.39772C16.453 8.03287 15.9037 8.78082 15.5 9.60692C15.0962 8.78075 14.5468 8.03287 13.8816 7.39772C12.7135 6.27979 11.1855 5.50074 9.48105 5.22853C9.81187 4.51521 10.2758 3.87102 10.8458 3.32562ZM9.02292 6.6608C10.4843 6.84974 11.7909 7.49442 12.7858 8.44539C13.9783 9.58694 14.7135 11.156 14.7137 12.8965C14.7137 13.2779 14.6764 13.6504 14.6086 14.0129C13.1472 13.8234 11.8407 13.1787 10.8455 12.2283C9.65325 11.0862 8.91811 9.5172 8.91781 7.77671C8.91781 7.39518 8.95516 7.0227 9.02292 6.6608ZM14.0606 15.6341C13.7376 16.2722 13.3053 16.8503 12.7858 17.3476C11.5922 18.488 9.95152 19.1908 8.1316 19.1913C7.00303 19.1908 5.94395 18.9201 5.01722 18.4429C5.34011 17.8047 5.7726 17.2262 6.29173 16.7289C7.48532 15.589 9.12596 14.8862 10.9462 14.8856C12.0745 14.8856 13.1338 15.1564 14.0606 15.6341ZM3.47739 17.3476C2.28485 16.2061 1.55 14.637 1.54945 12.8965C1.55 11.156 2.28485 9.58687 3.47739 8.44539C4.52128 7.44784 5.9075 6.78513 7.45646 6.63422C7.39874 7.0077 7.36813 7.38868 7.36837 7.77671C7.36783 9.92224 8.27966 11.8708 9.75002 13.276C9.81681 13.3396 9.88597 13.4012 9.9555 13.4629C8.10702 13.6785 6.44558 14.4856 5.19619 15.6812C4.61488 16.2367 4.1227 16.8784 3.73792 17.5822C3.64904 17.506 3.56179 17.4282 3.47739 17.3476ZM10.9462 27.4753C9.12596 27.4748 7.48532 26.7721 6.29167 25.6316C5.0995 24.4901 4.36428 22.921 4.36397 21.1805C4.36397 20.7268 4.41514 20.2852 4.51026 19.8591C5.60162 20.3794 6.83162 20.6737 8.1316 20.6732C9.55937 20.6737 10.9034 20.3188 12.0713 19.6996C11.9743 20.1794 11.9219 20.6742 11.9222 21.1805C11.9219 23.2986 12.8114 25.224 14.2491 26.6247C13.2785 27.165 12.1521 27.4748 10.9462 27.4753ZM15.5 25.7228C15.4665 25.6923 15.4322 25.6627 15.3994 25.6316C14.2072 24.4902 13.472 22.9211 13.4717 21.1806C13.4719 19.4401 14.2071 17.871 15.3994 16.729C15.4322 16.6979 15.4665 16.6684 15.5 16.6378C15.5333 16.6684 15.5676 16.6979 15.6004 16.729C16.7927 17.871 17.5278 19.4401 17.5281 21.1806C17.5279 22.9211 16.7927 24.4902 15.6004 25.6316C15.5675 25.6626 15.5332 25.6922 15.5 25.7228ZM24.708 25.6316C23.5144 26.7721 21.8737 27.4748 20.0538 27.4753C18.8476 27.4748 17.7214 27.165 16.7506 26.6247C18.1882 25.224 19.078 23.2986 19.0777 21.1805C19.0777 20.6742 19.0254 20.1794 18.9287 19.6996C20.0963 20.3192 21.4403 20.6737 22.8681 20.6732C24.168 20.6737 25.3981 20.3789 26.4894 19.8591C26.5846 20.2852 26.6356 20.7268 26.6359 21.1805C26.6354 22.921 25.9003 24.4901 24.708 25.6316ZM27.5226 17.3476C27.4379 17.4282 27.3506 17.506 27.2621 17.5821C26.8771 16.8784 26.3851 16.2366 25.8038 15.6812C24.5544 14.4856 22.8931 13.6784 21.0442 13.4629C21.1137 13.4012 21.1829 13.3396 21.2497 13.2759C22.7203 11.8708 23.6321 9.92224 23.6316 7.77664C23.6316 7.38861 23.601 7.00759 23.5435 6.63417C25.0924 6.78506 26.4784 7.44776 27.5226 8.44539C28.7149 9.58687 29.45 11.1559 29.4505 12.8964C29.45 14.637 28.7149 16.2061 27.5226 17.3476Z" fill="#FF8A00"/>
</g>
</g>
</g>
<path id="Vector_3" d="M0.442871 34.9285H0.854728V33.6113H1.4393L2.22759 34.9285H2.69259L1.86001 33.5689C2.30287 33.4673 2.59516 33.1793 2.59516 32.6965C2.59516 32.0485 2.1213 31.8198 1.46144 31.8198H0.442871V34.9285ZM0.854728 33.2936V32.1416H1.39944C1.90873 32.1416 2.18773 32.2857 2.18773 32.6965C2.18773 33.0988 1.90873 33.2936 1.39944 33.2936H0.854728ZM3.2583 34.9285H5.1803V34.5939H3.67016V33.4631H4.9013V33.1285H3.67016V32.1544H5.13158V31.8198H3.2583V34.9285ZM7.08853 34.9835C7.50925 34.9835 7.8281 34.8226 8.08496 34.5388L7.8591 34.2932C7.65096 34.5092 7.41625 34.6405 7.10625 34.6405C6.48625 34.6405 6.09653 34.1492 6.09653 33.3656C6.09653 32.5906 6.50396 32.1078 7.11953 32.1078C7.39853 32.1078 7.61553 32.2306 7.78382 32.4042L8.00525 32.1501C7.81925 31.9511 7.50925 31.7647 7.1151 31.7647C6.29139 31.7647 5.67582 32.3746 5.67582 33.3784C5.67582 34.3864 6.28253 34.9835 7.08853 34.9835ZM8.68592 34.9285H9.09778V33.6113H9.68235L10.4706 34.9285H10.9356L10.1031 33.5689C10.5459 33.4673 10.8382 33.1793 10.8382 32.6965C10.8382 32.0485 10.3643 31.8198 9.70449 31.8198H8.68592V34.9285ZM9.09778 33.2936V32.1416H9.64249C10.1518 32.1416 10.4308 32.2857 10.4308 32.6965C10.4308 33.0988 10.1518 33.2936 9.64249 33.2936H9.09778ZM12.6527 34.9835C13.317 34.9835 13.8219 34.6447 13.8219 33.6452V31.8198H13.4277V33.6579C13.4277 34.4075 13.0867 34.6405 12.6527 34.6405C12.232 34.6405 11.8999 34.4075 11.8999 33.6579V31.8198H11.488V33.6452C11.488 34.6447 11.9929 34.9835 12.6527 34.9835ZM14.693 34.9285H15.1048V31.8198H14.693V34.9285ZM16.668 34.9285H17.0799V32.1544H18.063V31.8198H15.6849V32.1544H16.668V34.9285ZM18.6416 34.9285H20.5636V34.5939H19.0534V33.4631H20.2846V33.1285H19.0534V32.1544H20.5149V31.8198H18.6416V34.9285ZM23.1389 34.9835C23.8164 34.9835 24.2416 34.5939 24.2416 34.1026C24.2416 33.6409 23.9493 33.4292 23.5729 33.2725L23.1079 33.0819C22.8554 32.9802 22.572 32.8659 22.572 32.5652C22.572 32.2856 22.8111 32.1078 23.1787 32.1078C23.4799 32.1078 23.719 32.2221 23.9183 32.4L24.1353 32.1501C23.905 31.9214 23.564 31.7647 23.1787 31.7647C22.5897 31.7647 22.1557 32.112 22.1557 32.5906C22.1557 33.0438 22.5144 33.264 22.8156 33.3868L23.285 33.5816C23.5906 33.7129 23.8253 33.8146 23.8253 34.1322C23.8253 34.4372 23.5684 34.6405 23.1433 34.6405C22.8067 34.6405 22.479 34.488 22.2487 34.2551L22.0007 34.5219C22.2841 34.8056 22.6783 34.9835 23.1389 34.9835ZM24.8779 34.9285H25.2897V31.8198H24.8779V34.9285ZM26.8529 34.9285H27.2647V32.1544H28.2479V31.8198H25.8697V32.1544H26.8529V34.9285ZM28.8264 34.9285H30.7484V34.5939H29.2383V33.4631H30.4694V33.1285H29.2383V32.1544H30.6997V31.8198H28.8264V34.9285Z" fill="#FF8A00"/>
</g>
</svg>
